:SAMPLES-PER-SECOND 30
:FULLY-SPECIFIED
:DEGREES
172
root  62.0189 24.6312 0.586108 114.666 -85.7834 -142.255
RightUpLeg  -51.3442 -15.2213 5.64998
RightLeg  82.1226 -1.59054 -17.6164
RightFoot  -6.24196 0.279257 -7.19631
RightToes  0.000482159 0.542163 -0.142577
Spine  43.3042 -1.9374 5.55703
Spine1  -0.136745 -1.1279 2.04895
HEad  -17.8632 7.24018 -9.62382
LeftShoulder1  9.44499 -14.6315 -45.4007
LeftArm  -4.47707 2.02838 -25.1026
LeftForeArm  31.8109 -24.1182 -3.49979
LeftHand  -0.25398 0.0180481 5.50724
RightShoulder  4.95621 9.6924 31.6129
RightArm  -6.73607 -2.65939 38.8924
RightForeArm  3.78966 24.3386 5.01168
RightHand  -1.66593 5.08474 -18.6762
LeftUpLeg  -52.6923 6.75736 1.39182
LeftLeg  76.8111 0.730602 5.04952
LeftFoot  1.76557 -0.456491 3.83959
LeftToes  1.06246e-005 4.65855e-005 -8.18503e-006
173
root  62.005 24.6411 0.584201 115.052 -85.8095 -142.456
RightUpLeg  -51.5249 -15.2368 5.6688
RightLeg  82.1268 -1.58676 -17.5964
RightFoot  -6.26966 0.27638 -7.17688
RightToes  0.000482159 0.542163 -0.142577
Spine  43.378 -1.97415 5.66653
Spine1  -0.415776 -1.09879 1.92346
HEad  -17.5281 7.2612 -9.45162
LeftShoulder1  9.47615 -14.7012 -45.3751
LeftArm  -3.29002 2.07372 -25.2106
LeftForeArm  31.0879 -22.9651 -3.39629
LeftHand  -0.25398 0.0180481 5.50724
RightShoulder  4.97972 9.74449 31.6428
RightArm  -6.5163 -2.78518 39.0271
RightForeArm  3.4006 23.6388 4.88196
RightHand  -1.65883 4.8837 -18.9433
LeftUpLeg  -52.8639 6.85624 1.32132
LeftLeg  76.8016 0.725929 5.00738
LeftFoot  1.74773 -0.460951 3.88448
LeftToes  1.06246e-005 4.65855e-005 -8.18503e-006
174
root  61.9936 24.6482 0.579209 115.074 -85.8741 -142.339
RightUpLeg  -51.6655 -15.3302 5.655
RightLeg  82.1446 -1.57554 -17.5486
RightFoot  -6.31782 0.27044 -7.12186
RightToes  0.000482159 0.542163 -0.142577
Spine  43.5084 -2.00958 5.79771
Spine1  -0.741018 -1.05014 1.74693
HEad  -17.119 7.19087 -9.16885
LeftShoulder1  9.55223 -14.7993 -45.4986
LeftArm  -2.25174 2.2294 -25.0549
LeftForeArm  30.86 -21.6572 -3.47972
LeftHand  -0.25398 0.0180481 5.50724
RightShoulder  5.00603 9.78065 31.7391
RightArm  -6.28182 -3.23116 39.0844
RightForeArm  3.53073 22.9408 4.77071
RightHand  -1.63084 4.82174 -18.7434
LeftUpLeg  -52.9928 6.91184 1.22885
LeftLeg  76.7932 0.725557 4.99836
LeftFoot  1.732 -0.467221 3.95625
LeftToes  1.06246e-005 4.65855e-005 -8.18503e-006
175
root  61.9832 24.6527 0.57109 115.039 -85.9583 -142.188
RightUpLeg  -51.7868 -15.4821 5.61959
RightLeg  82.1828 -1.55226 -17.4521
RightFoot  -6.41534 0.25838 -6.99953
RightToes  0.000482159 0.542163 -0.142577
Spine  43.5787 -2.07133 5.94176
Spine1  -0.890436 -1.01573 1.48016
HEad  -16.8675 7.0317 -8.67134
LeftShoulder1  9.60469 -14.8696 -45.5763
LeftArm  -1.76651 2.38376 -24.784
LeftForeArm  31.5649 -20.2452 -3.73156
LeftHand  -0.25398 0.0180481 5.50724
RightShoulder  5.01646 9.79035 31.7904
RightArm  -5.87952 -3.6184 39.2146
RightForeArm  4.5419 21.9386 4.67209
RightHand  -1.62145 5.1935 -18.0204
LeftUpLeg  -53.0974 6.93227 1.12958
LeftLeg  76.7841 0.728131 5.01106
LeftFoot  1.71548 -0.474489 4.04224
LeftToes  1.06246e-005 4.65855e-005 -8.18503e-006
176
root  61.9737 24.6573 0.560825 115.46 -86.0457 -142.497
RightUpLeg  -51.9083 -15.631 5.57027
RightLeg  82.23 -1.52275 -17.3243
RightFoot  -6.53133 0.245486 -6.88168
RightToes  0.000482159 0.542163 -0.142577
Spine  43.6009 -2.1393 6.01161
Spine1  -0.908517 -1.01986 1.20634
HEad  -16.7114 6.85284 -8.04098
LeftShoulder1  9.59433 -14.8704 -45.5231
LeftArm  -2.05175 2.63713 -24.5083
LeftForeArm  32.9498 -18.9168 -4.05091
LeftHand  -0.25398 0.0180481 5.50724
RightShoulder  5.01154 9.80302 31.717
RightArm  -5.46928 -3.90274 39.4914
RightForeArm  5.88405 20.685 4.67698
RightHand  -1.63619 5.66113 -17.4446
LeftUpLeg  -53.1933 6.96356 1.02316
LeftLeg  76.7655 0.729518 5.01126
LeftFoot  1.70858 -0.481218 4.11781
LeftToes  1.06246e-005 4.65855e-005 -8.18503e-006
177
root  61.9672 24.6634 0.549148 116.416 -86.1307 -143.36
RightUpLeg  -52.0135 -15.7371 5.5172
RightLeg  82.2608 -1.5005 -17.2124
RightFoot  -6.58858 0.242906 -6.91353
RightToes  0.000482159 0.542163 -0.142577
Spine  43.6673 -2.17973 6.00236
Spine1  -1.01593 -1.02611 0.969756
HEad  -16.4201 6.72445 -7.49211
LeftShoulder1  9.56444 -14.8279 -45.4853
LeftArm  -2.66062 3.14549 -24.1562
LeftForeArm  34.0715 -17.8723 -4.32542
LeftHand  -0.25398 0.0180481 5.50724
RightShoulder  5.00455 9.81805 31.6214
RightArm  -5.0829 -4.36255 39.744
RightForeArm  6.85876 19.5694 4.7976
RightHand  -1.62162 5.68402 -17.2626
LeftUpLeg  -53.2613 7.0272 0.910499
LeftLeg  76.7313 0.729785 4.99764
LeftFoot  1.71795 -0.486484 4.16212
LeftToes  1.06246e-005 4.65855e-005 -8.18503e-006
178
root  61.9616 24.6691 0.53729 117.396 -86.1965 -144.264
RightUpLeg  -52.1038 -15.8122 5.48936
RightLeg  82.274 -1.48879 -17.1435
RightFoot  -6.59988 0.248132 -7.04478
RightToes  0.000482159 0.542163 -0.142577
Spine  43.7726 -2.21057 6.044
Spine1  -1.23336 -0.985351 0.686237
HEad  -15.959 6.53645 -7.13659
LeftShoulder1  9.56686 -14.8047 -45.5569
LeftArm  -3.09075 3.85876 -23.6793
LeftForeArm  34.3876 -17.0931 -4.55625
LeftHand  -0.25398 0.0180481 5.50724
RightShoulder  4.99507 9.79683 31.61
RightArm  -4.53005 -5.09753 39.833
RightForeArm  7.29662 18.8173 4.95002
RightHand  -1.5719 5.35972 -17.2307
LeftUpLeg  -53.3149 7.10053 0.819603
LeftLeg  76.7019 0.729818 4.98563
LeftFoot  1.72158 -0.489237 4.17894
LeftToes  1.06246e-005 4.65855e-005 -8.18503e-006
179
root  61.9539 24.6732 0.528002 117.902 -86.2189 -144.69
RightUpLeg  -52.1869 -15.8832 5.50725
RightLeg  82.2818 -1.48163 -17.1007
RightFoot  -6.65231 0.247214 -7.0621
RightToes  0.000482159 0.542163 -0.142577
Spine  43.8144 -2.27202 6.2109
Spine1  -1.37226 -0.915586 0.324254
HEad  -15.528 6.16531 -6.95483
LeftShoulder1  9.58295 -14.8152 -45.6094
LeftArm  -3.40652 4.60544 -23.2366
LeftForeArm  34.2241 -16.4466 -4.76523
LeftHand  -0.25398 0.0180481 5.50724
RightShoulder  4.97709 9.7413 31.6319
RightArm  -3.86583 -5.86439 39.8426
RightForeArm  7.52451 18.2958 5.09971
RightHand  -1.54706 5.17241 -17.2527
LeftUpLeg  -53.3832 7.1528 0.784896
LeftLeg  76.6955 0.729978 4.97566
LeftFoot  1.70883 -0.491108 4.19134
LeftToes  1.06246e-005 4.65855e-005 -8.18503e-006
180
root  61.946 24.6764 0.523376 117.984 -86.2099 -144.699
RightUpLeg  -52.2496 -15.9568 5.54586
RightLeg  82.2862 -1.4751 -17.0574
RightFoot  -6.73713 0.239482 -6.97092
RightToes  0.000482159 0.542163 -0.142577
Spine  43.7891 -2.35583 6.401
Spine1  -1.36149 -0.87256 0.00228919
HEad  -15.2162 5.77191 -6.9195
LeftShoulder1  9.56853 -14.8179 -45.5312
LeftArm  -3.90065 5.34544 -23.0148
LeftForeArm  34.0972 -15.9521 -4.88812
LeftHand  -0.25398 0.0180481 5.50724
RightShoulder  4.95645 9.68938 31.6235
RightArm  -3.3719 -6.46255 39.8725
RightForeArm  7.86484 17.8365 5.2384
RightHand  -1.55424 5.17401 -17.3277
LeftUpLeg  -53.4514 7.17319 0.79061
LeftLeg  76.7015 0.730842 4.97223
LeftFoot  1.69088 -0.493221 4.20959
LeftToes  1.06246e-005 4.65855e-005 -8.18503e-006
181
root  61.9423 24.6788 0.522397 118.105 -86.2104 -144.78
RightUpLeg  -52.2889 -16.0196 5.56385
RightLeg  82.2842 -1.46807 -17.0093
RightFoot  -6.74806 0.23994 -7.00572
RightToes  0.000482159 0.542163 -0.142577
Spine  43.8088 -2.40835 6.49407
Spine1  -1.36597 -0.856324 -0.177956
HEad  -14.849 5.60968 -7.00274
LeftShoulder1  9.54225 -14.798 -45.4528
LeftArm  -4.49372 6.14229 -22.9506
LeftForeArm  34.1051 -15.7198 -4.88065
LeftHand  -0.25398 0.0180481 5.50724
RightShoulder  4.93939 9.6418 31.6298
RightArm  -3.16697 -6.98878 39.8629
RightForeArm  8.39732 17.4654 5.33213
RightHand  -1.52661 5.03358 -17.2467
LeftUpLeg  -53.4878 7.17364 0.783764
LeftLeg  76.7026 0.734629 4.99293
LeftFoot  1.68904 -0.494514 4.21702
LeftToes  1.06246e-005 4.65855e-005 -8.18503e-006
182
root  61.9421 24.6787 0.52273 118.583 -86.2279 -145.23
RightUpLeg  -52.3409 -16.0494 5.56062
RightLeg  82.2855 -1.46198 -16.9692
RightFoot  -6.68071 0.24969 -7.18246
RightToes  0.000482159 0.542163 -0.142577
Spine  43.9043 -2.4027 6.51153
Spine1  -1.50859 -0.820608 -0.258468
HEad  -14.2918 5.62733 -7.10995
LeftShoulder1  9.55664 -14.7891 -45.5468
LeftArm  -4.73825 6.95034 -22.8174
LeftForeArm  34.0145 -15.7324 -4.82489
LeftHand  -0.25398 0.0180481 5.50724
RightShoulder  4.92369 9.58549 31.6718
RightArm  -3.15866 -7.56562 39.7675
RightForeArm  8.97678 17.2219 5.37328
RightHand  -1.44571 4.6849 -16.8997
LeftUpLeg  -53.5152 7.17747 0.748161
LeftLeg  76.694 0.74039 5.03011
LeftFoot  1.69919 -0.494164 4.20073
LeftToes  1.06246e-005 4.65855e-005 -8.18503e-006
183
root  61.9419 24.676 0.524063 119.23 -86.231 -145.826
RightUpLeg  -52.4208 -16.0367 5.56401
RightLeg  82.2984 -1.45789 -16.9453
RightFoot  -6.65644 0.251807 -7.23362
RightToes  0.000482159 0.542163 -0.142577
Spine  43.9694 -2.37996 6.53844
Spine1  -1.66734 -0.767792 -0.33861
HEad  -13.6828 5.61107 -7.13396
LeftShoulder1  9.59555 -14.798 -45.7159
LeftArm  -4.32696 7.61245 -22.5621
LeftForeArm  33.6635 -15.8765 -4.82307
LeftHand  -0.25398 0.0180481 5.50724
RightShoulder  4.9127 9.55334 31.6803
RightArm  -3.30257 -8.05452 39.6927
RightForeArm  9.40233 16.9786 5.41497
RightHand  -1.38302 4.42854 -16.5931
LeftUpLeg  -53.5722 7.19647 0.718357
LeftLeg  76.6952 0.743892 5.04986
LeftFoot  1.70078 -0.493438 4.18038
LeftToes  1.06246e-005 4.65855e-005 -8.18503e-006
184
root  61.9425 24.673 0.527072 119.61 -86.2125 -146.16
RightUpLeg  -52.4781 -16.0012 5.56419
RightLeg  82.309 -1.45559 -16.9354
RightFoot  -6.70529 0.2413 -7.07926
RightToes  0.000482159 0.542163 -0.142577
Spine  43.9427 -2.39634 6.58574
Spine1  -1.68833 -0.748952 -0.463883
HEad  -13.1734 5.5839 -7.06297
LeftShoulder1  9.59127 -14.7895 -45.7169
LeftArm  -3.49282 8.05214 -22.3471
LeftForeArm  33.28 -16.0717 -4.86444
LeftHand  -0.25398 0.0180481 5.50724
RightShoulder  4.90922 9.55975 31.635
RightArm  -3.60155 -8.25763 39.7425
RightForeArm  9.65102 16.6259 5.49158
RightHand  -1.38831 4.44752 -16.6226
LeftUpLeg  -53.6294 7.22248 0.712875
LeftLeg  76.7007 0.744507 5.04769
LeftFoot  1.6941 -0.494202 4.18496
LeftToes  1.06246e-005 4.65855e-005 -8.18503e-006
185
root  61.9482 24.671 0.530147 119.719 -86.2047 -146.272
RightUpLeg  -52.4754 -15.964 5.55063
RightLeg  82.3006 -1.45504 -16.9389
RightFoot  -6.71546 0.23345 -6.95837
RightToes  0.000482159 0.542163 -0.142577
Spine  43.9079 -2.44154 6.60573
Spine1  -1.6593 -0.765202 -0.616866
HEad  -12.6381 5.67501 -6.9578
LeftShoulder1  9.54681 -14.7704 -45.5467
LeftArm  -2.83219 8.33372 -22.2383
LeftForeArm  33.3522 -16.2204 -4.88464
LeftHand  -0.25398 0.0180481 5.50724
RightShoulder  4.89065 9.52661 31.5877
RightArm  -3.85736 -8.24088 39.8805
RightForeArm  9.77662 16.3106 5.5655
RightHand  -1.42504 4.56575 -16.856
LeftUpLeg  -53.6338 7.2513 0.70383
LeftLeg  76.6895 0.745384 5.04867
LeftFoot  1.70464 -0.496289 4.21177
LeftToes  1.06246e-005 4.65855e-005 -8.18503e-006
186
root  61.9581 24.6684 0.530912 119.995 -86.2168 -146.582
RightUpLeg  -52.4552 -15.9092 5.52155
RightLeg  82.2835 -1.45761 -16.9668
RightFoot  -6.65025 0.236928 -7.00579
RightToes  0.000482159 0.542163 -0.142577
Spine  43.9505 -2.45425 6.58328
Spine1  -1.77179 -0.760428 -0.748134
HEad  -11.9098 5.76552 -6.85399
LeftShoulder1  9.53932 -14.7975 -45.4396
LeftArm  -2.63477 8.52792 -22.0904
LeftForeArm  33.9403 -16.2205 -4.8848
LeftHand  -0.25398 0.0180481 5.50724
RightShoulder  4.82872 9.38508 31.5189
RightArm  -3.74953 -8.20842 40.0352
RightForeArm  9.62562 16.2782 5.5938
RightHand  -1.43348 4.51401 -17.0365
LeftUpLeg  -53.6081 7.29473 0.674232
LeftLeg  76.6656 0.745982 5.0481
LeftFoot  1.74167 -0.497847 4.23186
LeftToes  1.06246e-005 4.65855e-005 -8.18503e-006
